# xmcd CD database file
#
# Track frame offsets:
#	200
#	21540
#	38587
#	54382
#	73950
#	100412
#	125042
#	153267
#	172862
#	196365
#	214782
#	232842
#	252427
#	271680
#
# Disc length: 3888 seconds
#
# Revision: 0
# Processed by: cddbd v1.5PL3 Copyright (c) Steve Scherf et al.
# Submitted via: CDex 1.51
#
DISCID=c10f2e0e
DTITLE=James Rivers - Best of New Orleans Rhythm and Blues - Vol. 3
DYEAR=1994
DGENRE=Blues
TTITLE0=Ole' - part 1
TTITLE1=Summertime
TTITLE2=Ball of Funk
TTITLE3=Keep It Coming
TTITLE4=Mona Lisa
TTITLE5=Second Line
TTITLE6=Smokey the Funky Soprano
TTITLE7=Whenever You want My Love
TTITLE8=Baby, What You want Me to Do?
TTITLE9=Funky Too
TTITLE10=Thrill Me
TTITLE11=Southern Comfort
TTITLE12=Wake Up, Little Girl
TTITLE13=Take It All
EXTD=YEAR: 1994
EXTT0=
EXTT1=
EXTT2=
EXTT3=
EXTT4=
EXTT5=
EXTT6=
EXTT7=
EXTT8=
EXTT9=
EXTT10=
EXTT11=
EXTT12=
EXTT13=
PLAYORDER=
